<?xml version="1.0" standalone="no"?>
<!DOCTYPE svg PUBLIC "-//W3C//DTD SVG 20010904//EN"
 "http://www.w3.org/TR/2001/REC-SVG-20010904/DTD/svg10.dtd">
<svg version="1.0" xmlns="http://www.w3.org/2000/svg"
 width="119.000000pt" height="119.000000pt" viewBox="0 0 119.000000 119.000000"
 preserveAspectRatio="xMidYMid meet">

<g transform="translate(0.000000,119.000000) scale(0.100000,-0.100000)"
fill="#000000" stroke="none">
<path d="M576 1143 c-3 -3 -6 -15 -6 -25 0 -10 -7 -18 -15 -18 -17 0 -20 -16
-5 -25 6 -3 10 -13 10 -21 0 -10 -5 -9 -20 6 -11 11 -26 20 -33 20 -13 0 -52
-69 -43 -77 2 -2 7 4 10 15 14 42 69 32 80 -14 5 -20 10 -24 18 -16 8 8 15 8
24 1 8 -7 13 -2 18 16 9 34 45 48 69 27 21 -19 22 -9 1 23 -19 29 -31 31 -56
8 -19 -17 -19 -16 -12 11 5 21 4 27 -5 22 -7 -5 -11 2 -11 18 0 25 -12 40 -24
29z"/>
<path d="M232 1101 c2 -5 24 -32 50 -60 32 -32 46 -55 42 -65 -17 -44 77 37
116 100 19 32 4 44 -17 13 -10 -13 -32 -40 -51 -59 l-33 -35 -17 23 c-39 53
-75 92 -84 92 -5 0 -8 -4 -6 -9z"/>
<path d="M720 1096 c0 -8 25 -42 56 -75 54 -59 82 -77 70 -46 -3 9 13 35 44
67 27 29 50 56 50 61 1 25 -41 -14 -91 -85 l-17 -23 -26 24 c-14 13 -36 39
-48 57 -25 36 -38 43 -38 20z"/>
<path d="M415 993 c-9 -21 -14 -56 -12 -78 l4 -40 1 41 c1 27 9 47 22 59 21
19 27 55 10 55 -5 0 -17 -17 -25 -37z"/>
<path d="M495 1021 c-3 -5 2 -12 11 -15 12 -4 14 -14 9 -36 -7 -31 10 -44 21
-15 13 34 -24 93 -41 66z"/>
<path d="M647 1019 c-23 -13 -24 -79 -1 -79 12 0 14 7 9 29 -5 22 -2 32 11 39
9 5 13 12 8 15 -5 3 -17 1 -27 -4z"/>
<path d="M720 1012 c0 -11 9 -27 19 -37 12 -10 21 -34 24 -59 l4 -41 1 46 c2
45 -21 109 -39 109 -5 0 -9 -8 -9 -18z"/>
<path d="M103 974 c-10 -22 -8 -28 23 -59 19 -19 34 -38 34 -42 0 -4 26 -9 58
-11 68 -3 122 24 122 59 0 21 -1 21 -18 6 -10 -10 -26 -17 -34 -17 -21 0 -42
26 -34 45 3 8 1 15 -4 15 -5 0 -13 -12 -16 -27 -6 -20 -2 -31 16 -45 l22 -18
-24 0 c-40 0 -85 28 -98 60 -7 17 -16 30 -20 30 -5 0 -10 7 -12 15 -2 10 -7 6
-15 -11z"/>
<path d="M1033 969 c-13 -15 -23 -34 -23 -43 0 -16 -59 -46 -91 -46 -18 0 -18
1 1 20 24 24 25 43 3 61 -15 12 -16 12 -10 -5 15 -39 -36 -62 -68 -29 -16 15
-17 15 -13 -8 5 -37 66 -63 126 -54 60 10 116 66 104 107 l-7 25 -22 -28z"/>
<path d="M576 961 c-4 -7 -5 -15 -2 -18 9 -9 19 4 14 18 -4 11 -6 11 -12 0z"/>
<path d="M520 924 c0 -9 42 -45 47 -40 9 8 -18 46 -32 46 -8 0 -15 -3 -15 -6z"/>
<path d="M610 915 c-22 -26 -5 -37 18 -11 15 18 18 26 8 26 -7 0 -19 -7 -26
-15z"/>
<path d="M425 911 c-3 -5 7 -11 22 -13 17 -2 29 -10 31 -21 5 -23 -26 -33 -52
-17 -19 12 -20 12 -7 -4 21 -26 65 -17 69 13 5 35 -46 69 -63 42z"/>
<path d="M696 907 c-11 -8 -17 -23 -14 -38 4 -30 48 -39 69 -13 13 16 12 16
-7 4 -26 -16 -57 -6 -52 17 2 11 14 19 31 21 15 2 25 8 22 13 -9 13 -28 11
-49 -4z"/>
<path d="M0 810 c0 -7 205 -10 595 -10 390 0 595 3 595 10 0 7 -205 10 -595
10 -390 0 -595 -3 -595 -10z"/>
<path d="M10 680 c0 -71 3 -90 14 -90 11 0 15 20 18 90 3 80 1 90 -14 90 -16
0 -18 -11 -18 -90z"/>
<path d="M60 764 c0 -4 8 -13 17 -20 15 -11 16 -17 6 -43 -12 -34 -3 -40 21
-15 22 22 20 50 -6 68 -24 17 -38 20 -38 10z"/>
<path d="M335 744 c-51 -55 -20 -155 46 -153 15 0 18 3 9 6 -35 13 -50 37 -50
80 0 33 6 50 25 68 17 18 20 25 9 25 -8 0 -26 -12 -39 -26z"/>
<path d="M443 762 c-8 -5 -8 -12 3 -26 13 -19 14 -19 14 7 0 30 0 30 -17 19z"/>
<path d="M502 680 c0 -70 3 -90 14 -90 11 0 14 19 14 90 0 71 -3 90 -14 90
-12 0 -14 -19 -14 -90z"/>
<path d="M610 680 c0 -73 3 -90 15 -90 12 0 15 17 15 90 0 73 -3 90 -15 90
-12 0 -15 -17 -15 -90z"/>
<path d="M700 768 c-1 -2 -2 -42 -3 -91 -2 -72 1 -87 13 -87 12 0 15 17 15 90
0 65 -3 90 -12 90 -7 0 -13 -1 -13 -2z"/>
<path d="M790 761 c0 -6 5 -13 10 -16 6 -3 10 1 10 9 0 9 -4 16 -10 16 -5 0
-10 -4 -10 -9z"/>
<path d="M869 741 c-57 -58 -24 -153 53 -150 30 2 31 2 6 6 -59 9 -80 102 -33
148 13 14 19 25 14 25 -6 0 -24 -13 -40 -29z"/>
<path d="M973 762 c-8 -5 -8 -12 3 -26 13 -19 14 -19 14 7 0 30 0 30 -17 19z"/>
<path d="M1045 745 c-18 -17 -25 -35 -25 -63 0 -43 31 -92 57 -92 14 0 12 4
-5 23 -31 33 -31 108 0 137 12 11 16 20 9 20 -6 0 -23 -11 -36 -25z"/>
<path d="M1139 744 c13 -16 21 -41 21 -64 0 -23 -8 -48 -21 -64 -21 -27 -15
-34 12 -13 45 34 50 92 13 136 -31 38 -54 42 -25 5z"/>
<path d="M190 757 c0 -1 -16 -40 -35 -85 -27 -65 -31 -82 -19 -82 8 0 12 4 9
10 -3 5 0 22 8 37 8 16 20 42 27 58 l13 30 23 -50 c12 -27 23 -58 23 -67 1
-11 9 -18 21 -18 18 0 17 6 -15 81 -19 44 -35 83 -35 85 0 2 -4 4 -10 4 -5 0
-10 -1 -10 -3z"/>
<path d="M772 691 c-11 -7 -11 -9 2 -14 10 -4 16 -1 16 8 0 17 -1 17 -18 6z"/>
<path d="M796 609 c-16 -16 -17 -19 -4 -19 9 0 19 7 22 16 9 24 4 24 -18 3z"/>
<path d="M0 530 c0 -6 206 -10 595 -10 385 0 595 4 595 10 0 7 -210 10 -595
10 -389 0 -595 -3 -595 -10z"/>
<path d="M190 459 c0 -3 -16 -24 -36 -45 -20 -21 -31 -40 -25 -42 6 -2 11 -13
12 -25 0 -15 2 -17 6 -7 3 8 9 17 13 20 4 3 15 22 23 43 9 20 20 37 24 36 4
-1 21 3 36 9 16 7 33 12 38 12 15 0 10 -17 -6 -24 -17 -6 -20 -51 -5 -61 6 -3
10 5 10 18 0 14 7 28 17 31 19 8 83 -11 83 -24 0 -5 -11 -26 -25 -46 -26 -38
-32 -60 -15 -49 6 3 11 -4 11 -17 1 -17 3 -18 6 -5 2 9 9 17 14 17 5 0 12 18
15 40 4 23 11 39 17 37 6 -2 19 5 29 15 10 10 28 18 40 18 20 0 20 -1 5 -18
-10 -10 -17 -27 -17 -37 0 -15 4 -14 25 9 28 30 33 31 63 10 26 -18 29 -5 5
25 -19 22 -59 29 -110 17 -25 -6 -43 -1 -89 24 -48 25 -68 30 -111 28 -29 -2
-53 -6 -53 -9z"/>
<path d="M486 461 c-4 -5 -2 -12 3 -15 5 -4 12 -2 15 3 4 5 2 12 -3 15 -5 4
-12 2 -15 -3z"/>
<path d="M666 461 c-4 -5 -2 -12 3 -15 5 -4 12 -2 15 3 4 5 2 12 -3 15 -5 4
-12 2 -15 -3z"/>
<path d="M857 463 c-11 -3 -35 -16 -55 -30 -29 -19 -44 -23 -72 -18 -41 8 -38
8 -72 6 -33 -1 -60 -37 -51 -69 5 -20 7 -21 18 -6 15 22 35 10 35 -21 0 -31
-14 -39 -35 -19 -15 15 -16 15 -10 -8 4 -17 0 -32 -14 -49 -21 -24 -21 -24
-36 -4 -10 12 -15 36 -13 63 4 54 -20 78 -48 50 -20 -20 -11 -68 14 -75 27 -7
55 -74 44 -103 -5 -14 -12 -38 -16 -55 -5 -27 -4 -26 15 10 l22 39 24 -44 c13
-25 21 -36 18 -25 -27 86 -28 103 -12 136 9 19 25 40 36 47 37 22 22 90 -18
79 -27 -7 -27 -1 -1 13 24 13 60 -3 60 -25 0 -8 5 -15 10 -15 15 0 12 22 -6
48 -14 20 -14 22 4 22 10 0 29 -10 42 -22 14 -13 27 -22 30 -20 3 1 9 -13 13
-30 5 -18 12 -35 16 -38 5 -3 11 -12 14 -20 4 -10 6 -8 6 8 1 12 6 22 11 22
14 0 -18 60 -36 67 -23 9 -16 23 19 38 45 19 77 10 77 -22 0 -13 4 -21 10 -18
15 10 12 52 -5 59 -8 3 -15 10 -15 16 0 11 47 3 66 -11 6 -5 13 -6 17 -3 3 3
18 -20 33 -52 28 -58 28 -59 36 -29 8 31 -10 71 -38 82 -8 3 -14 10 -14 17 0
12 -89 18 -123 9z m-312 -123 c7 -23 -1 -40 -20 -40 -8 0 -17 5 -20 10 -9 15
4 50 20 50 8 0 16 -9 20 -20z"/>
<path d="M396 452 c-3 -6 -1 -14 5 -17 15 -10 25 3 12 16 -7 7 -13 7 -17 1z"/>
<path d="M756 451 c-4 -5 -2 -12 3 -15 5 -4 12 -2 15 3 4 5 2 12 -3 15 -5 4
-12 2 -15 -3z"/>
<path d="M576 431 c-4 -5 -2 -12 3 -15 5 -4 12 -2 15 3 4 5 2 12 -3 15 -5 4
-12 2 -15 -3z"/>
<path d="M298 3 c167 -2 437 -2 600 0 163 1 27 2 -303 2 -330 0 -464 -1 -297
-2z"/>
</g>
</svg>
